<svg xmlns="http://www.w3.org/2000/svg" width="19.345" height="19.345" viewBox="0 0 19.345 19.345"><defs><style>.a{fill-rule:evenodd;}</style></defs><path class="a" d="M129.374,138.784c-.409,1.578-4.559,1.695-4.266-.409.175-1.4.468-2.747.7-4.149.117-.877-.468-.584-.935-.76-.351-.175-.351-.584.058-.643a24.862,24.862,0,0,1,2.981-.058c.351,0,.526.175.526.468a1.876,1.876,0,0,1-.058.818c-.234,1.344-.584,2.747-.7,4.033-.058.292,0,.818.409.818a4.43,4.43,0,0,0,.935-.351C129.257,138.434,129.374,138.609,129.374,138.784Z" transform="translate(-117.335 -124.992)"/><path class="a" d="M148.4,74a1.385,1.385,0,0,1,1.4,1.4,1.35,1.35,0,0,1-1.4,1.4,1.4,1.4,0,1,1,0-2.805Z" transform="translate(-138.409 -69.675)"/><path d="M9.643,0A9.672,9.672,0,1,1,0,9.643,9.665,9.665,0,0,1,9.643,0Zm0,1.461a8.182,8.182,0,1,0,8.182,8.182A8.206,8.206,0,0,0,9.643,1.461Z"/></svg>